<svg xmlns="http://www.w3.org/2000/svg" width="141" height="79" viewBox="0 0 141 79" fill="none"><path d="M25.4242 45.55C27.0392 45.2784 28.2519 44.7235 29.0681 43.8926C29.8857 43.0588 30.2909 41.8067 30.2909 40.1392V40.0041C30.2909 38.9698 30.1384 38.0997 29.8305 37.3923C29.5227 36.6835 29.0565 36.1141 28.4305 35.6797C27.8046 35.2469 27.0305 34.9302 26.1068 34.7428C25.1817 34.5511 24.1128 34.4567 22.8972 34.4567C22.6067 34.4567 22.2669 34.4596 21.8776 34.4683C21.4884 34.4785 21.0934 34.4886 20.694 34.4973C20.2946 34.5061 19.9141 34.5148 19.551 34.5249C19.1894 34.5322 18.8902 34.5467 18.6549 34.5656C18.5286 34.5845 18.4197 34.6455 18.3296 34.7428C18.2367 34.843 18.1917 34.9564 18.1917 35.0813V54.2815C18.1917 54.4267 18.2309 54.5473 18.3122 54.6475C18.395 54.7448 18.5083 54.7928 18.6535 54.7928H18.9265C19.0703 54.7928 19.1821 54.7448 19.2664 54.6475C19.3477 54.5458 19.3869 54.4253 19.3869 54.2815V45.659C19.8604 45.6793 20.312 45.688 20.7463 45.688H22.8943C23.131 45.688 23.3198 45.6909 23.465 45.7011C23.6103 45.7083 23.8092 45.704 24.0634 45.688L29.8538 54.5531C29.8901 54.6083 29.9496 54.6621 30.031 54.7143C30.1123 54.7695 30.1893 54.7942 30.2619 54.7942H30.6148C30.8501 54.7942 30.9866 54.71 31.0229 54.5386C31.0592 54.3672 31.0229 54.19 30.914 54.004L25.4213 45.5486L25.4242 45.55ZM22.8972 44.5695H22.1216C21.8021 44.5695 21.4739 44.5666 21.1282 44.5564C20.784 44.5463 20.4544 44.5434 20.1363 44.5434H19.3884V35.6783C19.8066 35.642 20.3483 35.6158 21.0193 35.5984C21.6903 35.5795 22.3148 35.5693 22.8957 35.5693C23.9109 35.5693 24.8041 35.6376 25.5738 35.7742C26.3435 35.9136 26.9927 36.1518 27.517 36.5004C28.0427 36.8476 28.4363 37.3008 28.7006 37.8659C28.9635 38.4324 29.0942 39.1412 29.0942 40.0012V40.1377C29.0942 41.0122 28.9679 41.7355 28.7152 42.3137C28.461 42.8874 28.0805 43.3421 27.5722 43.666C27.0639 43.9928 26.422 44.2282 25.6406 44.3662C24.8651 44.5013 23.9472 44.5695 22.8957 44.5695H22.8972Z" fill="#5C575E"></path><path d="M43.7511 34.5917H30.8908C30.5452 34.5917 30.3752 34.7428 30.3752 35.0551V35.2977C30.3752 35.5693 30.5466 35.703 30.8908 35.703H36.7364V54.2786C36.7364 54.4238 36.7756 54.5444 36.8599 54.6446C36.9397 54.7419 37.053 54.7899 37.1968 54.7899H37.4698C37.6151 54.7899 37.7283 54.7419 37.8097 54.6446C37.891 54.5444 37.9331 54.4224 37.9331 54.2786V35.703H43.7526C44.0939 35.703 44.2681 35.5693 44.2681 35.2977V35.0551C44.2681 34.7428 44.0939 34.5917 43.7526 34.5917H43.7511Z" fill="#5C575E"></path><path d="M27.732 28.0653C28.0835 28.0653 28.2592 27.9069 28.2592 27.5961V27.3724C28.2592 27.0775 28.0835 26.9294 27.732 26.9294H20.5881C20.2569 26.9294 19.9563 26.9047 19.6891 26.8567C19.4219 26.8131 19.1996 26.7173 19.0239 26.5807C18.8482 26.4427 18.7102 26.2423 18.6086 25.9852C18.5069 25.7295 18.4546 25.3867 18.4546 24.9611V17.8696H27.732C28.0835 17.8696 28.2592 17.7156 28.2592 17.4004V17.1244C28.2592 16.8281 28.0835 16.6799 27.732 16.6799H18.4546V10.5878C18.4546 10.1622 18.5069 9.81941 18.6086 9.56376C18.7102 9.30665 18.8482 9.10475 19.0239 8.9682C19.1982 8.8273 19.4219 8.73724 19.6891 8.69076C19.9563 8.64573 20.2569 8.62249 20.5881 8.62249H27.732C28.0835 8.62249 28.2592 8.47578 28.2592 8.17945V7.95576C28.2592 7.642 28.0835 7.48657 27.732 7.48657H20.5881C19.5351 7.48657 18.716 7.71463 18.1249 8.16493C17.5338 8.61668 17.239 9.42577 17.239 10.5878V24.9611C17.239 26.1261 17.5338 26.9323 18.1249 27.384C18.716 27.8387 19.5366 28.0653 20.5881 28.0653H27.732Z" fill="#5C575E"></path><path d="M31.4965 27.384C32.0862 27.8387 32.9096 28.0653 33.9611 28.0653H40.2743C40.6243 28.0653 40.8015 27.9069 40.8015 27.5961V27.3724C40.8015 27.0775 40.6243 26.9294 40.2743 26.9294H33.9611C33.6271 26.9294 33.3279 26.9047 33.0621 26.8567C32.7934 26.8131 32.5712 26.7173 32.397 26.5807C32.2212 26.4427 32.0832 26.2423 31.9816 25.9852C31.8814 25.7295 31.8291 25.3867 31.8291 24.9611V8.01241C31.8291 7.8657 31.787 7.74077 31.7056 7.63909C31.6214 7.53887 31.5067 7.48657 31.3585 7.48657H31.0826C30.9359 7.48657 30.8197 7.53741 30.7355 7.63909C30.6527 7.74077 30.6106 7.8657 30.6106 8.01241V24.9611C30.6106 26.1261 30.9054 26.9323 31.4965 27.384Z" fill="#5C575E"></path><path d="M3.08774 28.0377C3.71369 28.1089 4.38321 28.1626 5.09339 28.2018C5.80503 28.2381 6.52248 28.257 7.24138 28.257C8.10841 28.257 9.00014 28.1829 9.91219 28.0377C10.8272 27.8866 11.6579 27.6077 12.4058 27.1908C13.1538 26.7739 13.7667 26.1842 14.2459 25.4187C14.7266 24.6503 14.9663 23.6581 14.9663 22.4409V21.9688C14.9663 20.7327 14.6656 19.7158 14.0673 18.9227C13.4675 18.1282 12.6309 17.5762 11.5606 17.261C12.5932 16.892 13.4036 16.3255 13.9845 15.5557C14.5654 14.7901 14.8559 13.8242 14.8559 12.6636V12.36C14.8559 11.3243 14.6395 10.4803 14.2053 9.82087C13.7725 9.16867 13.1944 8.65591 12.4755 8.28695C11.7552 7.91799 10.9375 7.66815 10.0226 7.53887C9.11197 7.40814 8.18248 7.34277 7.24138 7.34277C6.53845 7.34277 5.8152 7.36311 5.06725 7.39942C4.32076 7.43864 3.6585 7.47351 3.08774 7.50982C2.93815 7.53161 2.81325 7.58535 2.71159 7.67541C2.61138 7.76838 2.56055 7.89185 2.56055 8.03856V27.5046C2.56055 27.8387 2.73628 28.0144 3.08774 28.0348V28.0377ZM3.7805 8.53679C4.25976 8.51936 4.80438 8.49612 5.4129 8.46852C6.02288 8.44092 6.62995 8.42785 7.24138 8.42785C8.05322 8.42785 8.84183 8.47288 9.60721 8.56294C10.3755 8.65591 11.0566 8.83893 11.6579 9.11783C12.2577 9.39382 12.737 9.79037 13.0971 10.3075C13.4573 10.8246 13.6359 11.5102 13.6359 12.36V12.6636C13.6359 13.1792 13.5677 13.6789 13.4297 14.1612C13.2903 14.6391 13.0376 15.0632 12.6687 15.4336C12.2969 15.7997 11.8017 16.0931 11.1743 16.3183C10.5454 16.5405 9.75099 16.6524 8.791 16.6524H3.7805V8.53679ZM3.7805 17.8449H8.791C9.76987 17.8449 10.5774 17.9582 11.2135 18.1906C11.8496 18.4201 12.3565 18.7252 12.737 19.1014C13.116 19.482 13.3774 19.9221 13.5256 20.4174C13.6723 20.9157 13.7463 21.4342 13.7463 21.9688V22.4409C13.7463 23.4374 13.5619 24.2421 13.193 24.8638C12.8226 25.4826 12.339 25.9619 11.7392 26.3047C11.138 26.6461 10.4466 26.8713 9.6624 26.9831C8.87669 27.0935 8.06775 27.1458 7.23992 27.1458C6.55588 27.1458 5.95607 27.1298 5.4405 27.0935C4.92347 27.0572 4.36869 27.0194 3.77904 26.9831V17.8449H3.7805Z" fill="#5C575E"></path><path d="M10.7182 35.7625C10.5904 35.3442 10.3769 35.0217 10.0792 34.7951C9.78003 34.5685 9.41404 34.4552 8.97835 34.4552C8.52232 34.4552 8.14762 34.5758 7.84989 34.8082C7.55071 35.0449 7.33722 35.3689 7.21087 35.7887L1.63832 54.1972C1.58313 54.3962 1.58749 54.5575 1.65284 54.6853C1.71384 54.816 1.83728 54.877 2.01882 54.877H2.37319C2.46178 54.877 2.54892 54.8393 2.63025 54.7681C2.71158 54.6954 2.76967 54.6156 2.80744 54.5226L5.03529 47.1537H12.8662L15.1507 54.5226C15.2233 54.7594 15.3686 54.877 15.5879 54.877H15.9117C16.1121 54.877 16.2385 54.816 16.2922 54.6853C16.3474 54.5575 16.3474 54.3962 16.2922 54.1972L10.7197 35.7625H10.7182ZM5.36061 45.9596L8.3524 36.085C8.38725 35.9397 8.4497 35.8163 8.54265 35.7189C8.63124 35.6202 8.77647 35.5708 8.97689 35.5708C9.17586 35.5708 9.31964 35.626 9.41404 35.7349C9.50263 35.8424 9.56654 35.9702 9.60284 36.114L12.567 45.9611H5.36207L5.36061 45.9596Z" fill="#5C575E"></path><path d="M55.3858 34.5917H48.3681C47.3384 34.5917 46.531 34.8125 45.9515 35.257C45.3706 35.703 45.0815 36.4932 45.0815 37.6378V51.7496C45.0815 52.8942 45.3706 53.683 45.9515 54.1318C46.531 54.5734 47.337 54.7928 48.3681 54.7928H55.3858C55.7314 54.7928 55.9013 54.6417 55.9013 54.3367V54.1144C55.9013 53.8253 55.73 53.6786 55.3858 53.6786H48.3681C48.0443 53.6786 47.7495 53.6597 47.488 53.6133C47.2252 53.5653 47.0102 53.4753 46.8345 53.3402C46.6631 53.2065 46.5281 53.0134 46.4293 52.7548C46.3276 52.502 46.2783 52.168 46.2783 51.7496V44.7903H55.3872C55.7329 44.7903 55.9028 44.6349 55.9028 44.3269V44.0567C55.9028 43.7677 55.7314 43.621 55.3872 43.621H46.2783V37.6392C46.2783 37.2224 46.3262 36.8839 46.4293 36.6297C46.5295 36.3784 46.6646 36.1823 46.8345 36.0443C47.0102 35.9107 47.2252 35.8163 47.488 35.7727C47.7509 35.7291 48.0443 35.7044 48.3681 35.7044H55.3858C55.7314 35.7044 55.9013 35.5635 55.9013 35.2715V35.0551C55.9013 34.7428 55.73 34.5917 55.3858 34.5917Z" fill="#5C575E"></path><path d="M59.5786 28.1495C60.2641 28.2033 61.0585 28.2309 61.9691 28.2309C63.3024 28.2309 64.3872 28.074 65.2296 27.7588C66.069 27.445 66.7269 27.0354 67.2004 26.5241C67.6709 26.0186 67.9905 25.4477 68.156 24.8173C68.3245 24.1913 68.4073 23.5608 68.4073 22.9333C68.4073 22.3058 68.3042 21.7422 68.1008 21.2411C67.8961 20.7414 67.5925 20.2707 67.1844 19.8263C66.7778 19.3832 66.268 18.9547 65.6566 18.5364C65.0451 18.1209 64.3321 17.6648 63.5188 17.1651L61.7426 16.083C61.1297 15.7155 60.5894 15.3625 60.1174 15.0313C59.6469 14.6957 59.2518 14.3587 58.9396 14.0159C58.6244 13.676 58.3863 13.3143 58.228 12.9367C58.0726 12.5561 57.9927 12.116 57.9927 11.6163C57.9927 10.5806 58.4008 9.80055 59.2155 9.27326C60.0303 8.74598 61.3635 8.48161 63.2167 8.48161C63.513 8.48161 63.863 8.49032 64.2725 8.51066C64.6777 8.52954 65.0727 8.54988 65.4503 8.57893C65.8294 8.60508 66.1678 8.63413 66.467 8.66028C66.7618 8.68933 66.9375 8.7024 66.9927 8.7024C67.2701 8.74162 67.4821 8.72709 67.6303 8.66028C67.777 8.59781 67.851 8.46708 67.851 8.26372V8.13154C67.851 7.94996 67.7958 7.82504 67.6855 7.75387C67.5736 7.68124 67.379 7.62604 67.1031 7.58972C66.8998 7.57229 66.6398 7.54615 66.3275 7.50838C66.0153 7.47352 65.6784 7.44447 65.3196 7.42704C64.958 7.40815 64.5978 7.39217 64.2391 7.37184C63.8789 7.35586 63.5507 7.34424 63.2544 7.34424C62.444 7.34424 61.6496 7.40815 60.8741 7.53888C60.1 7.66816 59.4058 7.89622 58.7987 8.22014C58.1887 8.54262 57.6993 8.98275 57.3304 9.53473C56.963 10.0896 56.7756 10.7956 56.7756 11.6439C56.7756 12.3092 56.8817 12.9004 57.0966 13.4189C57.3072 13.9346 57.6064 14.4139 57.9941 14.8483C58.3834 15.2811 58.8437 15.682 59.3782 16.0525C59.9141 16.4258 60.4979 16.8005 61.1224 17.1913L62.8667 18.2705C63.6437 18.7543 64.2972 19.1697 64.8331 19.5212C65.369 19.8727 65.8091 20.2199 66.1475 20.5613C66.4902 20.9026 66.7415 21.2585 66.8954 21.6289C67.0537 21.9993 67.1321 22.4424 67.1321 22.9609C67.1321 23.5332 67.0566 24.0678 66.9085 24.5704C66.7618 25.0701 66.496 25.5073 66.117 25.8879C65.7379 26.267 65.2151 26.559 64.5485 26.7754C63.8804 26.9875 63.0206 27.0935 61.9648 27.0935C61.5756 27.0935 61.1834 27.0833 60.7855 27.0659C60.3876 27.047 60.0027 27.0252 59.6294 26.9962C59.2606 26.9671 58.9178 26.9395 58.6027 26.9134C58.2875 26.8843 58.0188 26.8524 57.7981 26.8146C57.6499 26.7986 57.5062 26.8146 57.3682 26.8727C57.2317 26.9279 57.1605 27.0659 57.1605 27.2809V27.3898C57.1605 27.5874 57.22 27.7225 57.3406 27.7951C57.4611 27.8677 57.6485 27.9229 57.9084 27.9593C58.334 28.0319 58.8902 28.0929 59.5743 28.1481L59.5786 28.1495Z" fill="#5C575E"></path><path d="M50.7425 8.67771C50.6147 8.2521 50.3954 7.92382 50.0904 7.6914C49.7855 7.4648 49.4122 7.34424 48.9692 7.34424C48.5074 7.34424 48.1255 7.46771 47.8205 7.70593C47.5169 7.94561 47.2991 8.27825 47.1698 8.7024L41.4927 27.4508C41.439 27.6586 41.4433 27.8227 41.5072 27.9534C41.574 28.0813 41.696 28.1452 41.8805 28.1452H42.2406C42.3321 28.1452 42.4193 28.1089 42.5021 28.0377C42.5892 27.9622 42.6473 27.8779 42.6851 27.7878L44.9536 20.2809H52.9283L55.2563 27.7878C55.3275 28.029 55.4771 28.1452 55.6979 28.1452H56.0319C56.2352 28.1452 56.3645 28.0813 56.4167 27.9534C56.4734 27.8227 56.4734 27.6586 56.4167 27.4508L50.7411 8.67625L50.7425 8.67771ZM45.2847 19.0651L48.3331 9.01035C48.3694 8.85928 48.4333 8.73871 48.5263 8.63558C48.6178 8.5339 48.7674 8.48306 48.9692 8.48306C49.1726 8.48306 49.3207 8.53826 49.4122 8.64865C49.5052 8.76196 49.5691 8.88688 49.6068 9.03649L52.6262 19.0651H45.2862H45.2847Z" fill="#5C575E"></path><path d="M67.7536 46.7062C67.3543 46.2704 66.8547 45.8507 66.2534 45.4425C65.655 45.0372 64.955 44.5869 64.1548 44.0945L62.4106 43.0326C61.8108 42.6666 61.2777 42.3267 60.8145 41.9984C60.3526 41.6716 59.9634 41.3389 59.657 41.0048C59.3491 40.6708 59.1152 40.3149 58.9598 39.9416C58.8074 39.5711 58.7318 39.1383 58.7318 38.6488C58.7318 37.6334 59.1312 36.865 59.93 36.3493C60.7302 35.8308 62.0402 35.5722 63.8571 35.5722C64.1461 35.5722 64.4932 35.5824 64.8926 35.6012C65.292 35.6187 65.6768 35.6419 66.0501 35.6666C66.4233 35.6942 66.7559 35.7218 67.0464 35.7509C67.3383 35.7756 67.5097 35.7915 67.5634 35.7915C67.835 35.8264 68.0427 35.8148 68.1893 35.7509C68.3331 35.6855 68.4043 35.5577 68.4043 35.3601V35.2265C68.4043 35.0522 68.3535 34.9258 68.2416 34.8546C68.1327 34.7864 67.9454 34.7326 67.6709 34.6948C67.4734 34.676 67.2192 34.6527 66.9113 34.6179C66.6034 34.583 66.2723 34.5525 65.9179 34.5365C65.5635 34.5205 65.2106 34.5031 64.8563 34.4871C64.5034 34.4653 64.1824 34.4581 63.8919 34.4581C63.0961 34.4581 62.3176 34.5205 61.5551 34.6498C60.7941 34.7762 60.113 34.9955 59.5161 35.3165C58.9163 35.6347 58.4385 36.0661 58.0725 36.6108C57.7108 37.1541 57.5308 37.8455 57.5308 38.6807C57.5308 39.3315 57.6339 39.914 57.8445 40.4224C58.0521 40.9308 58.3484 41.3999 58.7304 41.827C59.1094 42.2497 59.564 42.6463 60.0868 43.0109C60.614 43.374 61.1863 43.7473 61.7991 44.1279L63.5143 45.1883C64.2768 45.6618 64.9187 46.0685 65.4445 46.4143C65.9716 46.7571 66.3986 47.1013 66.7327 47.4354C67.0696 47.7695 67.3136 48.1196 67.469 48.4813C67.6229 48.8473 67.6999 49.2846 67.6999 49.7886C67.6999 50.3537 67.6258 50.8809 67.4821 51.369C67.3383 51.8614 67.0783 52.2899 66.7036 52.6618C66.3318 53.0351 65.8177 53.3285 65.1642 53.5348C64.5106 53.7469 63.6654 53.85 62.6299 53.85C62.2479 53.85 61.8616 53.8384 61.4724 53.821C61.0802 53.805 60.7026 53.7832 60.3366 53.7541C59.975 53.7251 59.6395 53.6989 59.3273 53.6699C59.0194 53.6423 58.7565 53.6132 58.5372 53.5755C58.392 53.558 58.2555 53.5755 58.1189 53.635C57.981 53.683 57.9142 53.8195 57.9142 54.0345V54.142C57.9142 54.3352 57.9723 54.4703 58.0885 54.54C58.209 54.6126 58.392 54.6635 58.6461 54.6998C59.0644 54.7695 59.609 54.832 60.2844 54.8828C60.9553 54.938 61.7367 54.9656 62.6284 54.9656C63.9384 54.9656 65.0059 54.8087 65.8322 54.5022C66.6586 54.1943 67.302 53.789 67.7682 53.2893C68.2315 52.7925 68.5452 52.2347 68.7093 51.6145C68.8719 50.9986 68.9533 50.3798 68.9533 49.7639C68.9533 49.1466 68.8531 48.5946 68.6541 48.1021C68.4551 47.6126 68.1545 47.1493 67.7551 46.7106L67.7536 46.7062Z" fill="#5C575E"></path><path d="M118.248 37.9631L118.222 47.2742H116.55L116.525 47.9307H129.696V47.2742H127.999V39.6888L126.153 38.5485V37.0989L122.249 34.5089L118.248 37.9646V37.9631ZM121.943 47.2727H118.859V38.3118L121.943 35.7494V47.2727ZM127.367 40.0723V47.2945H126.204L126.175 39.3634L127.367 40.0737V40.0723ZM122.603 35.5766L125.517 37.4518V47.2727H122.603V35.5766Z" fill="#5C575E"></path><path d="M108.586 29.9173C108.594 29.8781 108.597 29.8549 108.6 29.8418V29.7663C108.6 29.698 108.586 29.6413 108.552 29.6007C108.52 29.5556 108.477 29.5222 108.419 29.5004C108.358 29.4728 108.288 29.4569 108.206 29.4511C108.128 29.4409 108.037 29.4365 107.936 29.4365C107.874 29.4365 107.806 29.4365 107.742 29.4409C107.679 29.4438 107.623 29.4452 107.57 29.4481L107.408 30.3575H107.974C108.08 30.3575 108.169 30.3429 108.24 30.3226C108.314 30.2994 108.374 30.2703 108.423 30.2267C108.468 30.1861 108.504 30.141 108.532 30.0887C108.556 30.0364 108.577 29.9798 108.588 29.9188L108.586 29.9173Z" fill="#5C575E"></path><path d="M110.174 29.5077C110.172 29.4641 110.151 29.4438 110.118 29.4438C110.08 29.4438 110.052 29.4641 110.031 29.5077L109.485 30.7119H110.296L110.173 29.5077H110.174Z" fill="#5C575E"></path><path d="M113.457 30.5289C113.49 30.5289 113.525 30.5289 113.56 30.5332C113.59 30.5332 113.619 30.5332 113.644 30.5332C113.895 30.5332 114.081 30.4867 114.205 30.3981C114.33 30.3037 114.404 30.1686 114.43 29.9943L114.438 29.9449C114.444 29.9013 114.449 29.8592 114.449 29.8185C114.449 29.6733 114.398 29.576 114.3 29.5193C114.2 29.4612 114.046 29.4351 113.837 29.4351C113.778 29.4351 113.714 29.4351 113.64 29.4394C113.567 29.4423 113.51 29.4438 113.465 29.451L113.275 30.5216C113.297 30.5216 113.326 30.5216 113.358 30.5259C113.388 30.5259 113.423 30.5259 113.455 30.5303L113.457 30.5289Z" fill="#5C575E"></path><path d="M100.748 23.3952H117.215L108.936 9.10767L100.749 23.3952H100.748ZM101.893 22.73L105.077 17.1782L108.298 22.73H101.895H101.893ZM105.688 16.8456H112.09L108.911 22.4017L105.688 16.8456ZM116.032 22.6835H109.628L112.812 17.1274L116.032 22.6835ZM105.735 16.0873L108.921 10.5312L112.137 16.0873H105.735Z" fill="#5C575E"></path><path d="M108.299 30.7235C108.262 30.6901 108.212 30.6625 108.153 30.6451C108.089 30.6277 108.015 30.619 107.923 30.619H107.36L107.181 31.627C107.244 31.6314 107.303 31.6343 107.368 31.6387C107.432 31.6445 107.495 31.6445 107.557 31.6445C107.669 31.6445 107.772 31.6358 107.87 31.6212C107.961 31.6082 108.042 31.5806 108.115 31.5443C108.186 31.5065 108.244 31.46 108.289 31.3946C108.336 31.3293 108.366 31.2479 108.381 31.1492C108.391 31.0983 108.398 31.0649 108.398 31.0446C108.401 31.0213 108.401 30.9995 108.401 30.9821C108.401 30.9327 108.392 30.8848 108.375 30.8427C108.36 30.7976 108.336 30.7584 108.299 30.725V30.7235Z" fill="#5C575E"></path><path d="M91.0445 36.6225C90.5289 37.7932 90.4621 38.1738 90.4142 38.4542L90.3938 38.5602C90.3503 38.7926 90.465 39.0846 90.603 39.378L90.6335 39.4434C90.6756 39.5349 90.5826 39.6743 90.4389 39.8791L90.3851 39.9532C90.3488 40.0026 89.4978 41.1777 89.4121 41.4523L89.3787 41.5612L89.431 41.66C89.4644 41.7254 89.6183 41.9462 90.1803 42.0478C90.2428 42.0595 90.2573 42.0842 90.266 42.1016C90.2994 42.1597 90.2689 42.2541 90.221 42.3892C90.1687 42.5301 90.1353 42.6274 90.1542 42.7335C90.1876 42.9092 90.314 42.9906 90.3808 43.0327L90.436 43.0763L90.4389 43.0792L90.359 43.5629C90.3909 43.6195 90.4389 43.6718 90.5042 43.727C90.5638 43.7619 90.5928 43.9159 90.5202 44.1889C90.5202 44.1947 90.4069 44.7249 90.6349 45.0924C90.7351 45.2537 90.8876 45.3612 91.0735 45.4018C91.3132 45.4541 91.6007 45.4745 91.8781 45.489C92.4373 45.5195 92.9644 45.5457 93.2128 45.8797C93.406 46.1369 93.3914 46.4114 93.374 46.7978C93.3566 47.0883 93.3333 47.4877 93.4176 47.9845L93.4553 48.2155H99.4113L99.3866 47.9163C99.2167 45.9291 99.1339 44.555 99.1629 44.2441C99.2196 43.6922 99.5071 43.1576 99.8252 42.5606C100.284 41.7181 100.856 40.6708 100.856 39.1703C100.856 35.7669 98.1434 34.217 95.6222 34.217C93.4234 34.217 91.7125 35.1161 91.0445 36.6195V36.6225ZM100.306 39.1717C100.306 40.5313 99.7933 41.4712 99.3242 42.3311C98.993 42.947 98.6808 43.5295 98.614 44.1918C98.5733 44.6349 98.7098 46.4448 98.8115 47.6664H93.9288C93.8954 47.3338 93.9099 47.0592 93.9244 46.8181C93.9448 46.4012 93.9665 45.9713 93.6557 45.5515C93.2535 45.0096 92.5389 44.9733 91.9057 44.9399C91.6559 44.9269 91.3945 44.9094 91.1926 44.8644C90.982 44.8208 91.0561 44.3269 91.0561 44.3269C91.197 43.7953 91.0663 43.5091 90.9356 43.3682L91.03 43.2782L90.9849 42.992C90.953 42.7814 90.8165 42.6652 90.7322 42.6042C90.7351 42.5969 90.738 42.5911 90.7395 42.5809C90.8063 42.395 90.9094 42.1118 90.7497 41.8358C90.6582 41.66 90.4882 41.5423 90.2776 41.5075C90.1716 41.4886 90.0932 41.4639 90.0366 41.445C90.1847 41.201 90.4824 40.7594 90.8324 40.2771L90.8905 40.1958C91.0677 39.946 91.3088 39.6046 91.1345 39.2109L91.0968 39.1325C90.9414 38.7999 90.9341 38.6924 90.937 38.6619L90.9588 38.5442C91.0024 38.2944 91.0605 37.953 91.5499 36.8447C92.1265 35.5446 93.6499 34.7675 95.6236 34.7675C97.8791 34.7675 100.307 36.1446 100.307 39.1703L100.306 39.1717Z" fill="#5C575E"></path><path d="M116.141 37.1744C115.955 37.3604 115.743 37.526 115.503 37.6364C115.258 37.7497 114.974 37.7932 114.707 37.8223C114.497 37.8455 114.302 37.8368 114.093 37.8034C113.744 37.7424 113.447 37.5245 113.201 37.1541C113.107 37.003 113.056 36.8592 113.056 36.727C113.056 36.5048 113.095 36.3276 113.169 36.1969C113.239 36.0734 113.332 35.9543 113.455 35.8773C113.592 35.7916 113.786 35.7524 113.946 35.7567C114.055 35.7596 114.16 35.7916 114.26 35.8337C114.296 35.8497 114.333 35.8729 114.364 35.8976C114.444 35.963 114.396 36.0734 114.311 36.1068C114.263 36.1257 114.209 36.1358 114.158 36.1504C114.068 36.178 113.94 36.1998 113.862 36.255C113.794 36.3029 113.746 36.3973 113.714 36.4714C113.621 36.6806 113.625 36.9231 113.718 37.1323C113.807 37.3313 113.958 37.4679 114.164 37.5376C114.324 37.5913 114.495 37.6073 114.662 37.6073C114.895 37.6073 115.137 37.5187 115.385 37.3444C115.621 37.1875 115.798 37.003 115.923 36.7866C116.026 36.6094 116.08 36.3988 116.123 36.1998C116.18 35.947 116.177 35.7059 116.024 35.488C115.895 35.3035 115.667 35.2062 115.448 35.196C115.277 35.1888 115.111 35.2338 114.953 35.2963C114.873 35.3268 114.796 35.3616 114.717 35.395C114.655 35.4212 114.594 35.4488 114.529 35.4677C114.476 35.4822 114.37 35.4749 114.382 35.3936C114.385 35.366 114.401 35.3369 114.414 35.3122C114.44 35.2599 114.479 35.2149 114.52 35.1728C114.52 35.1728 116.446 33.2002 116.449 33.1973C116.472 33.1726 116.498 33.1523 116.526 33.1305C116.544 33.1159 116.584 33.0724 116.607 33.0695C116.627 33.0666 116.662 33.1043 116.681 33.1174C116.736 33.1566 116.793 33.2016 116.852 33.2336C116.951 33.2859 117.059 33.3193 117.169 33.3309C117.321 33.3484 117.48 33.3237 117.621 33.2612C117.767 33.1973 117.914 33.129 118.061 33.0607C118.078 33.052 118.096 33.0753 118.101 33.0898C118.113 33.113 118.106 33.1348 118.091 33.1566C118.064 33.1973 118.048 33.2438 118.014 33.2801C117.972 33.3251 117.917 33.3527 117.866 33.3861C117.76 33.4558 117.651 33.5198 117.536 33.5735C117.307 33.6781 117.054 33.7347 116.801 33.7071C116.799 33.7071 116.796 33.7071 116.794 33.7071C116.73 33.6999 116.668 33.6853 116.607 33.6636C116.547 33.6432 116.488 33.5938 116.428 33.5793C116.393 33.5706 116.361 33.604 116.334 33.6272C116.197 33.7391 116.077 33.8713 115.958 34.0006C115.894 34.0688 115.831 34.1386 115.767 34.2083C115.544 34.4538 115.323 34.6978 115.105 34.9447C115.117 34.9317 115.245 34.9375 115.268 34.936C115.338 34.9317 115.407 34.9288 115.478 34.9288C115.618 34.9288 115.759 34.9346 115.895 34.9607C116.122 35.0043 116.343 35.1016 116.498 35.2716C116.605 35.3892 116.678 35.5374 116.713 35.6928C116.755 35.8787 116.745 36.0777 116.684 36.2579C116.764 36.13 116.838 35.9979 116.913 35.8671C117.002 35.7117 117.092 35.5563 117.181 35.4008C117.297 35.1989 117.411 34.997 117.528 34.7951C117.664 34.5583 117.799 34.3201 117.936 34.0834C118.085 33.8204 118.236 33.559 118.386 33.2961C118.544 33.0186 118.703 32.7426 118.862 32.4652C119.024 32.1848 119.185 31.903 119.344 31.6227C119.501 31.3481 119.658 31.0736 119.817 30.8005C119.963 30.5434 120.111 30.2863 120.258 30.0292C120.389 29.7997 120.521 29.5702 120.652 29.3407C120.761 29.1489 120.871 28.9587 120.98 28.7669C121.061 28.6246 121.142 28.4822 121.225 28.3399C121.273 28.2571 121.321 28.1743 121.368 28.09C121.378 28.0726 121.388 28.0552 121.397 28.0377H96.469L102.45 38.428C102.469 38.3873 102.485 38.3452 102.509 38.3089C102.537 38.2929 102.58 38.2537 102.649 38.1942L102.759 38.1651C102.768 38.1651 102.776 38.1709 102.787 38.1767C102.795 38.184 102.804 38.1985 102.811 38.2203C102.897 38.4672 102.922 38.6909 103.096 38.9001C103.336 39.1892 103.742 39.362 104.115 39.362C105.122 39.362 106.173 38.6401 107.276 37.1991C107.444 36.9783 107.585 36.7706 107.694 36.5745C107.746 36.4598 107.832 36.2971 107.95 36.0908C107.572 36.5077 106.894 37.0306 106.295 36.7474C105.433 36.3378 105.831 35.0595 106.234 34.4712C106.561 33.9933 107.067 33.4863 107.595 33.2409C108.04 33.0346 108.626 32.9867 108.956 33.4181C109.215 33.7565 109.204 34.1691 109.151 34.5685C109.072 35.1466 108.825 35.7771 108.409 36.4612C107.693 37.6611 106.658 38.8115 105.364 39.3925C104.653 39.7136 103.883 39.853 103.124 39.5959L108.963 49.7407L116.199 37.1091C116.178 37.1294 116.162 37.1468 116.141 37.1686V37.1744ZM113.275 29.1824C113.358 29.1751 113.452 29.1678 113.561 29.162C113.673 29.1562 113.781 29.1548 113.887 29.1548C114.161 29.1548 114.378 29.207 114.54 29.3087C114.703 29.4133 114.786 29.576 114.786 29.7982C114.786 29.8447 114.778 29.8941 114.774 29.9464L114.765 29.9958C114.736 30.1628 114.691 30.2979 114.622 30.4011C114.55 30.5086 114.465 30.5899 114.362 30.6538C114.258 30.7134 114.141 30.7569 114.01 30.7816C113.878 30.802 113.739 30.8165 113.593 30.8165C113.532 30.8165 113.47 30.8136 113.402 30.8121C113.332 30.8078 113.277 30.8034 113.23 30.7976L113.05 31.8275C113.044 31.8464 113.039 31.8638 113.03 31.8798C113.018 31.8929 112.999 31.9016 112.97 31.9016H112.773C112.731 31.9016 112.713 31.874 112.722 31.829L113.168 29.2768C113.178 29.223 113.216 29.1911 113.274 29.1824H113.275ZM110.857 31.8086L110.882 31.659C110.885 31.6329 110.891 31.6154 110.901 31.6067C110.909 31.598 110.934 31.598 110.965 31.6023C111.004 31.6067 111.053 31.6111 111.104 31.614C111.155 31.6154 111.207 31.6183 111.261 31.6183C111.315 31.6198 111.37 31.6227 111.424 31.6227C111.474 31.6256 111.524 31.6256 111.563 31.6256C111.76 31.6256 111.917 31.5893 112.032 31.5137C112.147 31.4368 112.203 31.3133 112.203 31.1419C112.203 31.0954 112.196 31.0591 112.186 31.0242C112.174 30.9894 112.154 30.9574 112.125 30.9211C112.097 30.8906 112.06 30.8572 112.013 30.8209C111.971 30.7845 111.916 30.7468 111.851 30.7003L111.534 30.4853C111.409 30.4011 111.312 30.3037 111.241 30.2021C111.172 30.0946 111.135 29.9769 111.135 29.8447C111.135 29.7125 111.161 29.6094 111.213 29.5223C111.264 29.4336 111.333 29.3625 111.418 29.3073C111.506 29.2521 111.608 29.2129 111.721 29.1896C111.836 29.1664 111.952 29.1533 112.076 29.1533C112.131 29.1533 112.19 29.1533 112.256 29.1533C112.321 29.1562 112.386 29.162 112.45 29.1649C112.513 29.1678 112.574 29.1722 112.628 29.178C112.686 29.1853 112.728 29.1925 112.763 29.1969C112.787 29.2027 112.802 29.2085 112.811 29.2158C112.815 29.2216 112.818 29.2375 112.813 29.2579L112.787 29.4162C112.78 29.438 112.776 29.454 112.768 29.4642C112.76 29.4758 112.739 29.4787 112.707 29.4743C112.625 29.4685 112.527 29.4642 112.414 29.4598C112.296 29.4525 112.186 29.4511 112.076 29.4511C112.004 29.4511 111.93 29.4554 111.859 29.4642C111.785 29.4743 111.718 29.4903 111.662 29.5179C111.607 29.544 111.56 29.5818 111.522 29.6297C111.489 29.682 111.471 29.746 111.471 29.8258C111.471 29.868 111.474 29.9086 111.486 29.9406C111.498 29.9784 111.516 30.0089 111.541 30.0437C111.567 30.0757 111.598 30.1091 111.641 30.1411C111.681 30.173 111.733 30.2093 111.795 30.2485L112.096 30.4505C112.182 30.5071 112.253 30.5623 112.311 30.616C112.37 30.6698 112.418 30.7235 112.455 30.7787C112.491 30.8325 112.517 30.8906 112.535 30.9501C112.552 31.0112 112.556 31.0722 112.556 31.139C112.556 31.2668 112.532 31.383 112.482 31.4789C112.429 31.5748 112.357 31.6561 112.264 31.7229C112.177 31.7897 112.068 31.8391 111.942 31.8711C111.817 31.9045 111.682 31.9205 111.537 31.9205C111.486 31.9205 111.431 31.9205 111.377 31.919C111.32 31.9161 111.262 31.9117 111.207 31.9088C111.153 31.9016 111.1 31.8972 111.05 31.89C110.998 31.8856 110.95 31.8798 110.912 31.8696C110.891 31.8667 110.873 31.8595 110.864 31.8507C110.853 31.8449 110.851 31.8275 110.856 31.8057L110.857 31.8086ZM103.144 31.829L103.494 29.836C103.517 29.698 103.553 29.5862 103.603 29.5005C103.651 29.409 103.713 29.3392 103.787 29.2898C103.861 29.2375 103.95 29.2041 104.05 29.1824C104.15 29.1649 104.265 29.1548 104.393 29.1548C104.587 29.1548 104.736 29.1548 104.839 29.162C104.939 29.1678 105.022 29.1751 105.084 29.1824C105.11 29.1882 105.125 29.1954 105.131 29.2041C105.136 29.2114 105.136 29.223 105.134 29.239L105.1 29.4104C105.097 29.4409 105.078 29.454 105.054 29.454H104.346C104.249 29.454 104.169 29.4627 104.108 29.4743C104.049 29.4903 103.998 29.5092 103.96 29.5411C103.924 29.5731 103.895 29.6123 103.874 29.6617C103.854 29.7111 103.837 29.7706 103.828 29.8389L103.739 30.3502H104.863C104.884 30.3502 104.897 30.3531 104.908 30.3618C104.923 30.3735 104.926 30.3938 104.92 30.4214L104.9 30.5594C104.894 30.5783 104.885 30.5943 104.878 30.6117C104.866 30.6248 104.846 30.6306 104.811 30.6306H103.688L103.479 31.8304C103.474 31.8493 103.463 31.8667 103.453 31.8827C103.443 31.8958 103.421 31.9045 103.394 31.9045H103.208C103.179 31.9045 103.163 31.8972 103.151 31.8827C103.144 31.8667 103.14 31.8507 103.145 31.8304L103.144 31.829ZM106.005 33.2249C105.97 33.2888 105.931 33.3483 105.892 33.4108L103.179 37.6538L102.392 37.7453L104.733 34.1487C104.345 34.3288 104.107 34.4407 104.018 34.4799C103.879 34.5438 103.735 34.6019 103.59 34.6499C103.513 34.6746 103.437 34.7051 103.357 34.7239C103.289 34.7414 103.196 34.769 103.138 34.7152C103.099 34.6789 103.113 34.6208 103.14 34.5816C103.174 34.5308 103.227 34.5235 103.28 34.5046C103.343 34.4828 103.405 34.461 103.468 34.4378C103.593 34.3913 103.716 34.3434 103.838 34.2925C104.082 34.1894 104.323 34.0761 104.557 33.9526C105.006 33.7159 105.436 33.4413 105.839 33.1363C105.877 33.1072 105.957 33.052 106.006 33.0971C106.033 33.1217 106.021 33.1958 106.003 33.2249H106.005ZM106.754 30.4199L106.734 30.5579C106.728 30.5768 106.719 30.5928 106.709 30.6102C106.698 30.6233 106.677 30.6291 106.647 30.6291H105.523L105.414 31.245C105.412 31.277 105.407 31.3031 105.404 31.3249C105.401 31.3496 105.398 31.3743 105.398 31.3946C105.398 31.4789 105.427 31.537 105.481 31.5718C105.537 31.6082 105.643 31.627 105.796 31.627H106.491C106.512 31.627 106.526 31.627 106.532 31.6314C106.541 31.6343 106.541 31.6503 106.535 31.6706L106.503 31.8478C106.5 31.8609 106.497 31.8725 106.494 31.8812C106.489 31.8885 106.478 31.8943 106.46 31.9016C106.43 31.9045 106.388 31.9059 106.332 31.9103C106.275 31.9132 106.211 31.9176 106.143 31.9176C106.072 31.9248 106.003 31.9248 105.929 31.9248C105.857 31.9263 105.796 31.9263 105.741 31.9263C105.531 31.9263 105.366 31.8841 105.245 31.797C105.131 31.7113 105.07 31.5791 105.07 31.3975C105.07 31.3452 105.075 31.2944 105.084 31.245L105.33 29.836C105.353 29.7024 105.391 29.5934 105.439 29.5034C105.486 29.4133 105.55 29.3421 105.623 29.2957C105.697 29.2405 105.786 29.207 105.883 29.1867C105.985 29.1693 106.101 29.1548 106.229 29.1548C106.438 29.1548 106.595 29.1548 106.704 29.1649C106.811 29.1707 106.891 29.1751 106.937 29.1853C106.952 29.1911 106.959 29.194 106.965 29.1998C106.971 29.207 106.971 29.2187 106.968 29.2375L106.933 29.409C106.93 29.4278 106.924 29.4424 106.92 29.4467C106.908 29.454 106.9 29.454 106.885 29.454H106.179C106.082 29.454 106.002 29.4627 105.941 29.4743C105.881 29.4903 105.834 29.5092 105.794 29.5411C105.757 29.5731 105.729 29.6123 105.709 29.6617C105.688 29.7111 105.672 29.7706 105.659 29.8389L105.571 30.3502H106.698C106.743 30.3502 106.762 30.3735 106.754 30.4214V30.4199ZM108.308 31.7723C108.202 31.829 108.082 31.8725 107.948 31.8929C107.815 31.9132 107.669 31.9248 107.514 31.9248C107.39 31.9248 107.279 31.9234 107.177 31.9161C107.074 31.9132 106.99 31.9059 106.92 31.8929C106.855 31.8827 106.823 31.8507 106.823 31.7984C106.823 31.781 106.823 31.7679 106.825 31.7563L107.251 29.3189C107.268 29.2405 107.313 29.194 107.393 29.1824C107.459 29.1751 107.541 29.1707 107.645 29.1649C107.751 29.1562 107.862 29.1548 107.983 29.1548C108.118 29.1548 108.24 29.1678 108.358 29.1867C108.472 29.2085 108.574 29.2419 108.66 29.2884C108.744 29.3363 108.812 29.393 108.86 29.4656C108.908 29.5368 108.934 29.6297 108.934 29.7314V29.7997C108.934 29.8128 108.934 29.8244 108.931 29.8375C108.931 29.8534 108.926 29.8796 108.918 29.9203C108.888 30.0742 108.83 30.1977 108.751 30.2878C108.667 30.3749 108.558 30.4432 108.427 30.4955C108.528 30.5362 108.605 30.6001 108.655 30.6829C108.708 30.7686 108.734 30.8702 108.734 30.9792V31.0417C108.734 31.0663 108.727 31.0998 108.715 31.1506C108.69 31.306 108.641 31.4353 108.571 31.5326C108.499 31.6358 108.41 31.7127 108.308 31.7738V31.7723ZM108.985 31.8449C108.979 31.8595 108.971 31.8725 108.959 31.8842C108.944 31.8929 108.931 31.9001 108.908 31.9001H108.682C108.651 31.9001 108.634 31.8842 108.634 31.8507C108.634 31.8377 108.637 31.8246 108.639 31.8159L109.739 29.4336C109.79 29.3189 109.854 29.2463 109.928 29.21C110.002 29.1707 110.08 29.1533 110.16 29.1533C110.198 29.1533 110.234 29.1533 110.267 29.1664C110.305 29.1707 110.34 29.1838 110.368 29.207C110.397 29.2259 110.423 29.255 110.443 29.2913C110.464 29.3247 110.474 29.3697 110.482 29.4278L110.739 31.8159V31.829C110.739 31.8754 110.718 31.9001 110.677 31.9001H110.456C110.439 31.9001 110.427 31.8929 110.42 31.8842C110.414 31.8725 110.408 31.8595 110.405 31.8449L110.314 31.0024H109.364L108.985 31.8449ZM110.092 36.9377C110.195 36.958 110.294 37.0059 110.391 37.0481C110.734 37.1933 111.1 37.4635 111.486 37.4635C111.675 37.4635 111.852 37.3662 112.022 37.1744C112.115 37.0728 112.238 36.8897 112.404 36.6225C112.459 36.5324 112.517 36.4409 112.585 36.3595C112.607 36.3334 112.629 36.3087 112.655 36.2869C112.691 36.2564 112.732 36.2637 112.754 36.3102C112.758 36.3174 112.76 36.3261 112.761 36.3349C112.77 36.4046 112.7 36.499 112.67 36.5513C112.626 36.6268 112.577 36.698 112.533 36.7735C112.447 36.9144 112.292 37.0902 112.07 37.3052C111.848 37.5173 111.665 37.6552 111.527 37.7177C111.23 37.8513 110.909 37.8543 110.603 37.7511C110.304 37.6509 110.045 37.4621 109.745 37.3676C109.54 37.3023 109.319 37.2965 109.116 37.3705C109.001 37.4112 108.899 37.4795 108.805 37.555C108.748 37.6001 108.698 37.6509 108.641 37.6959C108.606 37.7235 108.571 37.7613 108.526 37.7744C108.487 37.786 108.41 37.7613 108.403 37.7163C108.4 37.6974 108.409 37.6785 108.419 37.6625C108.51 37.5085 108.653 37.3909 108.79 37.279C108.971 37.1323 109.167 37.003 109.37 36.8912C109.544 36.8011 109.926 36.6196 110.516 36.3537C110.949 36.1591 111.377 35.9485 111.766 35.6768C112.124 35.427 112.559 35.0784 112.71 34.6528C112.802 34.3928 112.792 34.095 112.662 33.8495C112.352 33.2597 111.53 33.1595 111.065 33.62C110.866 33.8161 110.766 34.0645 110.766 34.3623C110.766 34.4741 110.796 34.5743 110.857 34.6629C110.936 34.7791 110.969 34.8721 111.139 34.8837C111.277 34.8924 111.422 34.8271 111.498 34.7094C111.522 34.6716 111.567 34.6237 111.601 34.6528C111.614 34.6644 111.617 34.6847 111.617 34.7036C111.62 34.9564 111.426 35.1931 111.181 35.2599C110.937 35.3268 110.661 35.2309 110.494 35.0421C110.326 34.8518 110.265 34.5801 110.311 34.3317C110.42 33.7536 111.033 33.3135 111.563 33.1566C112.097 32.9997 112.702 33.052 113.073 33.511C113.415 33.9308 113.38 34.5046 113.134 34.9622C113.044 35.1278 112.93 35.2716 112.799 35.3965C112.526 35.658 112.18 35.8453 111.837 36.0124C111.636 36.1112 111.286 36.2593 110.787 36.4641C110.493 36.5847 110.327 36.6486 110.294 36.6631C110.127 36.7387 109.98 36.8171 109.852 36.8999C109.875 36.8854 110.066 36.9304 110.098 36.9377H110.092Z" fill="#5C575E"></path><path d="M108.246 35.4749C108.417 35.1669 108.514 34.9461 108.535 34.814C108.577 34.5307 108.65 34.2402 108.591 33.954C108.562 33.8117 108.501 33.6519 108.391 33.5531C108.259 33.434 108.101 33.4689 107.938 33.4994C107.801 33.5241 107.668 33.5807 107.547 33.6475C107.295 33.7884 107.085 34.0121 106.917 34.246C106.615 34.6658 106.336 35.2352 106.349 35.7654C106.353 35.9499 106.396 36.1402 106.513 36.2811C106.805 36.6297 107.354 36.358 107.643 36.1431C107.891 35.9659 108.095 35.7422 108.246 35.4763V35.4749Z" fill="#5C575E"></path><path d="M139.228 34.5017C138.381 34.7806 137.857 35.1771 137.437 35.3689C139.951 31.9219 139.728 28.6333 138.559 25.4419C138.042 25.7673 137.522 26.1755 137.005 26.6723C138.136 23.157 137.437 20.4058 135.914 18.0062C135.211 18.6366 134.635 19.3513 134.187 20.1531C134.748 16.3778 133.871 13.2882 131.264 10.8827C130.59 12.0898 130.174 13.1313 129.926 14.167C129.033 10.9466 127.222 8.89561 124.782 7.64784C124.493 8.41044 124.33 9.17159 124.291 9.93275C122.553 7.68415 120.376 6.69785 117.952 6.41896C118.306 9.72067 119.705 12.4936 122.709 14.3355L121.825 14.2716C122.791 17.5385 124.46 19.665 126.881 20.9651C126.953 23.1977 127.698 25.057 128.801 26.604L127.289 26.4253C127.611 28.947 128.821 30.9995 130.776 32.6627C130.219 35.135 130.275 37.5434 131.431 39.8457L108.963 1.1214L87.3716 38.3002C87.9758 36.4656 87.8117 34.6368 87.3019 32.8036C89.3119 31.2145 90.5101 29.1141 90.8964 26.498L89.3076 26.7449C90.4317 25.0425 91.0983 23.1672 91.1041 21.0377C93.7052 19.6127 95.3304 17.3133 96.2192 14.35L95.4219 14.3689C98.569 12.3237 99.7396 9.57977 100.065 6.59036C97.808 6.73562 95.6687 7.87299 93.7546 10.0736C93.7212 9.32266 93.6006 8.57023 93.3973 7.81924C91.3263 8.8099 89.3962 10.3308 88.1835 14.411C87.9511 13.1967 87.4704 12.0768 86.811 11.0338C84.3101 13.4741 83.2064 16.4694 83.9558 20.1923L82.1607 18.2212C80.6881 20.461 80.0723 23.1323 80.9974 26.5706L79.6947 25.5117C78.177 28.5998 78.3135 31.9117 80.6459 35.5185C80.1042 35.1292 79.5146 34.8111 78.8843 34.6803C78.376 38.4512 79.6526 41.8764 83.6827 44.7932L80.1943 50.743L88.0412 50.7052L86.5671 51.2354C88.3868 53.7106 90.7933 55.7457 96.0434 55.6469C95.1924 55.9708 94.4299 56.4269 93.7531 57.0109C96.6128 59.3698 100.088 60.314 104.917 58.1395C105.63 58.3516 106.276 58.507 106.905 58.6334L104.894 59.9305L107.531 61.248L108.933 59.7359L110.514 61.3105L112.993 59.9015L110.953 58.5666C111.877 58.3806 112.622 58.2339 113.206 57.9637C116.937 59.7591 120.668 59.5776 124.4 57.0079C123.777 56.3064 122.965 55.7849 122.002 55.4232C126.39 55.7181 129.457 54.081 131.618 51.125L130.388 50.7706L137.706 50.7023L134.263 44.5695C138.554 42.026 139.481 38.4149 139.233 34.5002L139.228 34.5017ZM135.828 18.4681L134.608 30.0611C132.126 25.6162 133.223 21.6275 135.828 18.4681ZM132.707 21.3094C133.009 21.3094 133.269 21.5258 133.326 21.8236C133.356 21.9892 133.322 22.1562 133.226 22.2957C133.131 22.4351 132.988 22.5281 132.822 22.5586C132.482 22.6239 132.15 22.3915 132.087 22.056C132.057 21.8904 132.091 21.7233 132.186 21.5839C132.28 21.4444 132.424 21.3515 132.59 21.321C132.629 21.3137 132.668 21.3108 132.707 21.3108V21.3094ZM131.753 23.1672C131.848 23.0278 131.991 22.9348 132.157 22.9043C132.196 22.897 132.235 22.8927 132.273 22.8927C132.575 22.8927 132.835 23.1091 132.892 23.4069C132.922 23.5725 132.887 23.7395 132.793 23.879C132.699 24.0184 132.555 24.1114 132.389 24.1419C132.049 24.2043 131.717 23.9748 131.654 23.6393C131.624 23.4737 131.659 23.3066 131.753 23.1672ZM131.2 22.8622C130.86 22.9261 130.527 22.6951 130.465 22.3596C130.416 22.0937 130.542 21.8366 130.761 21.7059C130.979 21.565 131.219 21.6304 131.219 21.6304C131.461 21.6827 131.656 21.8759 131.704 22.1286C131.768 22.47 131.543 22.7997 131.2 22.8636V22.8622ZM131.46 11.3621L132.542 20.9549C132.542 20.9549 132.529 20.9549 132.523 20.9564C132.26 21.0058 132.032 21.1539 131.881 21.3747C131.845 21.427 131.814 21.4837 131.789 21.5403C131.721 21.472 131.643 21.4139 131.557 21.3675C129.376 17.5559 129.88 14.4227 131.46 11.3621ZM118.418 6.82423L125.626 14.4212C124.706 12.2307 124.59 10.1332 125.014 8.10976L129.694 18.7906C128.525 18.2037 127.31 17.0867 126.028 15.2027C120.592 13.8765 118.795 9.7933 118.419 6.82277L118.418 6.82423ZM122.339 14.5708L130.877 21.2701C130.78 21.2905 130.674 21.3253 130.571 21.3921C130.462 21.4575 130.369 21.5461 130.292 21.6449C125.314 20.9055 123.425 17.3976 122.338 14.5723L122.339 14.5708ZM127.342 20.9985L134.422 30.311C129.849 28.8686 127.469 25.1616 127.342 20.9985ZM83.7089 30.3241L90.7904 21.0116C90.6641 25.1761 88.2837 28.8831 83.7089 30.3241ZM86.3536 23.5042C86.4276 23.6553 86.4392 23.8267 86.3855 23.985C86.2984 24.2407 86.0587 24.4135 85.7886 24.4135C85.7204 24.4135 85.6521 24.4019 85.5867 24.3801C85.427 24.3264 85.2992 24.2131 85.2237 24.062C85.1496 23.9109 85.138 23.741 85.1917 23.5812C85.2788 23.3255 85.5185 23.1527 85.7886 23.1527C85.8569 23.1527 85.9251 23.1643 85.9905 23.1861C86.1502 23.2398 86.278 23.3531 86.3536 23.5042ZM86.3434 22.4119C86.4305 22.1562 86.6702 21.9833 86.9403 21.9833C87.0086 21.9833 87.0768 21.995 87.1422 22.0168C87.3019 22.0705 87.4297 22.1838 87.5053 22.3349C87.5793 22.4859 87.5909 22.6559 87.5372 22.8157C87.4501 23.0713 87.2104 23.2442 86.9403 23.2442C86.872 23.2442 86.8038 23.2326 86.7384 23.2108C86.5787 23.157 86.4509 23.0437 86.3753 22.8927C86.3013 22.7416 86.2897 22.5702 86.3434 22.4119ZM93.1679 8.17658C93.5992 10.2015 93.4786 12.2946 92.5593 14.4909L99.7657 6.88959C99.391 9.86012 97.596 13.9448 92.1585 15.271C90.8775 17.1564 89.6605 18.272 88.4928 18.8632L93.1679 8.17658ZM95.8474 14.6377C94.732 17.537 92.7699 21.1597 87.4835 21.7611C87.4152 21.7175 87.344 21.6798 87.2656 21.6536C87.1698 21.6217 87.0696 21.6057 86.9693 21.6028L95.8474 14.6377ZM86.7225 11.426C88.3258 14.5229 88.6976 17.8653 86.4218 21.7451C86.3928 21.7626 86.3623 21.78 86.3347 21.8018C86.3187 21.7466 86.2998 21.6928 86.2737 21.6405C86.1546 21.4009 85.9498 21.2207 85.6971 21.135C85.6448 21.1176 85.5911 21.1045 85.5359 21.0944L86.7225 11.426ZM84.7807 21.8831C84.8678 21.6275 85.1075 21.4546 85.3776 21.4546C85.4459 21.4546 85.5141 21.4662 85.5795 21.488C85.7392 21.5418 85.867 21.6551 85.9426 21.8061C86.0166 21.9572 86.0282 22.1286 85.9745 22.2869C85.8874 22.5426 85.6477 22.7154 85.3776 22.7154C85.3093 22.7154 85.2411 22.7038 85.1757 22.682C85.016 22.6283 84.8882 22.515 84.8126 22.3639C84.7386 22.2129 84.727 22.0415 84.7807 21.8831ZM84.3958 22.2651C84.4118 22.3552 84.4365 22.4453 84.4786 22.5295C84.4801 22.5339 84.4844 22.5368 84.4859 22.5411C84.6166 22.9653 84.7197 23.3996 84.788 23.8412C84.7894 23.8804 84.7981 23.9182 84.8054 23.9559C85.0813 25.8879 84.7313 27.9767 83.5012 30.1773L82.2754 18.5872C83.2064 19.713 83.9427 20.9448 84.3958 22.2651ZM79.1036 35.1132C81.497 36.0385 83.263 37.7337 84.4016 40.1987L86.3289 33.1188C85.4154 33.6897 84.4757 34.1502 83.5012 34.4552L83.4605 34.7646C83.3037 34.5845 83.0916 34.4639 82.852 34.432C82.8055 34.4261 82.7591 34.4232 82.7141 34.4232C82.4918 34.4232 82.2856 34.5017 82.1171 34.6295L82.0837 34.4566L79.7862 25.9373C81.635 27.5046 83.0524 29.6457 83.5012 33.068L90.5537 26.8408C89.9757 29.0225 89.0099 31.062 86.9679 32.6845C88.0005 36.6413 86.9868 39.516 85.0392 41.8982L85.0944 42.2178L84.3116 43.6166L83.9137 42.9223L83.7365 42.6318L79.1036 35.1147V35.1132ZM83.9398 36.451C84.0415 36.5847 84.085 36.7503 84.0618 36.9173C84.0153 37.2558 83.6987 37.5027 83.3516 37.4548C83.1846 37.4315 83.0379 37.3444 82.9363 37.2107C82.8346 37.0771 82.791 36.9115 82.8143 36.7445C82.8389 36.5702 82.9348 36.422 83.0699 36.3232C83.1294 36.3 83.186 36.2695 83.2412 36.2346C83.3037 36.2143 83.369 36.2012 83.4373 36.2012C83.4664 36.2012 83.4954 36.2026 83.5244 36.207C83.6915 36.2302 83.8381 36.3174 83.9398 36.451ZM83.7408 35.3427C83.7844 35.0333 84.0516 34.7995 84.3639 34.7995C84.3929 34.7995 84.422 34.8009 84.451 34.8053C84.618 34.8285 84.7647 34.9157 84.8664 35.0493C84.968 35.1829 85.0116 35.3485 84.9884 35.5156C84.9419 35.854 84.6253 36.101 84.2782 36.053C84.1112 36.0298 83.9645 35.9426 83.8628 35.809C83.7612 35.6754 83.7176 35.5098 83.7408 35.3427ZM83.3385 35.4996C83.3153 35.6725 83.2209 35.8206 83.0873 35.9179C83.0248 35.9426 82.9653 35.9731 82.9101 36.008C82.8215 36.0371 82.7257 36.0501 82.6269 36.0371C82.4599 36.0138 82.3132 35.9267 82.2115 35.793C82.1099 35.6594 82.0663 35.4938 82.0895 35.3267C82.1331 35.0173 82.4003 34.7835 82.7126 34.7835C82.7416 34.7835 82.7707 34.7849 82.7997 34.7893C82.9667 34.8125 83.1134 34.8997 83.2151 35.0333C83.3168 35.167 83.3603 35.3326 83.3371 35.4996H83.3385ZM87.0681 51.3589C90.8964 50.1009 94.3195 50.91 97.32 53.7208C97.124 53.8718 96.9846 54.0912 96.9366 54.3425L87.0696 51.3589H87.0681ZM118.541 53.0598C118.541 52.7127 118.825 52.4294 119.172 52.4294C119.519 52.4294 119.802 52.7127 119.802 53.0598C119.802 53.407 119.519 53.6903 119.172 53.6903C118.825 53.6903 118.541 53.407 118.541 53.0598ZM119.085 54.5371C119.085 54.8843 118.801 55.1675 118.454 55.1675C118.107 55.1675 117.824 54.8843 117.824 54.5371C117.824 54.1899 118.107 53.9067 118.454 53.9067C118.801 53.9067 119.085 54.1899 119.085 54.5371ZM120.105 53.9067C120.453 53.9067 120.736 54.1899 120.736 54.5371C120.736 54.8843 120.453 55.1675 120.105 55.1675C119.758 55.1675 119.475 54.8843 119.475 54.5371C119.475 54.1899 119.758 53.9067 120.105 53.9067ZM120.161 52.9596C120.11 52.4657 119.703 52.0779 119.201 52.0634L119.944 50.6732L122.423 50.6863L120.162 52.9596H120.161ZM119.385 50.8345C116.296 50.6645 113.268 52.0271 111.156 54.7594L110.596 54.4543L108.921 56.6651L107.334 54.4834L106.833 54.7318C103.995 51.6014 101.327 50.9245 98.675 50.9129L98.5603 50.7139L119.503 50.6936L119.387 50.8345H119.385ZM99.0585 52.1302C98.9641 52.0997 98.8639 52.0793 98.7593 52.0793C98.2728 52.0793 97.8676 52.4251 97.7717 52.8826L95.6005 50.6791L98.174 50.711L99.0585 52.1287V52.1302ZM98.7593 53.7179C98.4122 53.7179 98.129 53.4346 98.129 53.0874C98.129 52.7403 98.4122 52.457 98.7593 52.457C99.1064 52.457 99.3896 52.7403 99.3896 53.0874C99.3896 53.4346 99.1064 53.7179 98.7593 53.7179ZM99.6002 53.9067C99.9473 53.9067 100.23 54.1899 100.23 54.5371C100.23 54.8843 99.9473 55.1675 99.6002 55.1675C99.2531 55.1675 98.9699 54.8843 98.9699 54.5371C98.9699 54.1899 99.2531 53.9067 99.6002 53.9067ZM98.5792 54.5371C98.5792 54.8843 98.296 55.1675 97.9489 55.1675C97.6018 55.1675 97.3186 54.8843 97.3186 54.5371C97.3186 54.1899 97.6018 53.9067 97.9489 53.9067C98.296 53.9067 98.5792 54.1899 98.5792 54.5371ZM94.2556 57.0152C95.098 56.3456 96.132 55.7965 97.474 55.4522C97.6163 55.5263 97.7775 55.5684 97.9489 55.5684C98.296 55.5684 98.6039 55.3956 98.7898 55.1312C98.9728 55.3811 99.2661 55.5437 99.5987 55.5437C99.9313 55.5437 100.236 55.3738 100.419 55.1167C102.368 55.1472 104.192 55.7384 105.863 57.0138H94.2542L94.2556 57.0152ZM109.981 58.1671C109.827 59.1316 107.918 59.0764 107.938 58.0727L99.1325 51.2267C102.505 51.4562 106.226 53.0497 108.104 57.6979C108.817 57.3929 109.778 57.451 109.938 57.9318C110.394 54.4165 115.849 50.6282 118.958 51.1773L109.983 58.1671H109.981ZM123.892 56.944L112.237 56.9324C113.723 55.8067 115.491 55.1545 117.577 55.0092C117.747 55.3215 118.074 55.5379 118.453 55.5379C118.793 55.5379 119.092 55.3665 119.273 55.1065C119.455 55.3709 119.76 55.5452 120.104 55.5452C120.315 55.5452 120.511 55.4798 120.673 55.368C121.86 55.7122 122.929 56.2453 123.892 56.944ZM131.116 51.2935L121.055 54.219C120.99 54.0243 120.868 53.8559 120.705 53.7338C123.51 50.8388 127.001 50.0864 131.114 51.2935H131.116ZM136.065 49.745H81.863L94.2992 28.0406H94.2687L108.901 2.80203L122.479 26.1523L122.686 26.511L123.577 28.0406H123.568L136.065 49.745ZM133.634 43.6413L132.937 42.4313L133.079 41.7341C131.13 39.3533 130.183 36.5745 131.217 32.6162C129.177 30.9922 128.209 28.9543 127.63 26.7667L134.635 33.0012C134.877 29.6544 136.466 27.4625 138.4 25.8675L136.026 34.3564L135.984 34.4784C135.823 34.368 135.628 34.3027 135.417 34.3027C135.107 34.3027 134.831 34.4465 134.648 34.6702L134.56 34.2649C133.584 33.9599 132.77 33.6171 131.855 33.0462L133.695 40.0505C134.119 39.1311 134.627 38.3249 135.223 37.6233C135.378 37.5245 135.504 37.3851 135.587 37.2195C136.518 36.2448 137.639 35.5054 138.961 34.9941L134.348 42.4778L133.632 43.6384L133.634 43.6413ZM134.703 36.1576C135.05 36.1576 135.333 36.4409 135.333 36.788C135.333 37.1352 135.05 37.4185 134.703 37.4185C134.356 37.4185 134.072 37.1352 134.072 36.788C134.072 36.4409 134.356 36.1576 134.703 36.1576ZM133.767 35.9397C133.42 35.9397 133.137 35.6565 133.137 35.3093C133.137 34.9621 133.42 34.6789 133.767 34.6789C134.115 34.6789 134.398 34.9621 134.398 35.3093C134.398 35.6565 134.115 35.9397 133.767 35.9397ZM134.788 35.3093C134.788 34.9621 135.072 34.6789 135.419 34.6789C135.766 34.6789 136.049 34.9621 136.049 35.3093C136.049 35.6565 135.766 35.9397 135.419 35.9397C135.072 35.9397 134.788 35.6565 134.788 35.3093Z" fill="#5C575E"></path><path d="M138.554 65.4852H1.59912V66.21H138.554V65.4852Z" fill="#5C575E"></path><path d="M138.554 77.2569H1.59912V77.9817H138.554V77.2569Z" fill="#5C575E"></path><path d="M132.369 71.7328C132.369 72.661 131.617 73.4148 130.687 73.4148C129.758 73.4148 129.007 72.661 129.007 71.7328C129.007 70.8046 129.759 70.0521 130.687 70.0521C131.615 70.0521 132.369 70.8046 132.369 71.7328Z" fill="#5C575E"></path><path d="M10.9637 71.7328C10.9637 72.661 10.2114 73.4148 9.2819 73.4148C8.35241 73.4148 7.60156 72.661 7.60156 71.7328C7.60156 70.8046 8.35386 70.0521 9.2819 70.0521C10.2099 70.0521 10.9637 70.8046 10.9637 71.7328Z" fill="#5C575E"></path><path d="M26.6313 75.5458V68.4833L25.2385 69.7151V69.0556L26.6313 67.8573H27.1817V75.5458H26.6313Z" fill="#5C575E"></path><path d="M38.6042 75.6111C37.4162 75.6111 36.5854 74.7585 36.5854 73.5601V69.8458C36.5854 68.6475 37.4162 67.7948 38.6042 67.7948C39.7922 67.7948 40.6229 68.6475 40.6229 69.8458V73.5601C40.6229 74.7585 39.7922 75.6111 38.6042 75.6111ZM40.0725 69.8981C40.0725 68.9903 39.5656 68.2785 38.6042 68.2785C37.6427 68.2785 37.1359 68.9917 37.1359 69.8981V73.5049C37.1359 74.4128 37.6427 75.1245 38.6042 75.1245C39.5656 75.1245 40.0725 74.4113 40.0725 73.5049V69.8981Z" fill="#5C575E"></path><path d="M50.6308 75.6111C49.4428 75.6111 48.6121 74.7585 48.6121 73.5601V69.8458C48.6121 68.6475 49.4428 67.7948 50.6308 67.7948C51.8188 67.7948 52.6495 68.6475 52.6495 69.8458V73.5601C52.6495 74.7585 51.8188 75.6111 50.6308 75.6111ZM52.0991 69.8981C52.0991 68.9903 51.5922 68.2785 50.6308 68.2785C49.6693 68.2785 49.1625 68.9917 49.1625 69.8981V73.5049C49.1625 74.4128 49.6693 75.1245 50.6308 75.1245C51.5922 75.1245 52.0991 74.4113 52.0991 73.5049V69.8981Z" fill="#5C575E"></path><path d="M74.8235 75.5458L74.154 73.6778H70.5696L69.9001 75.5458H69.2742L72.1033 67.8573H72.6218L75.4509 75.5458H74.8249H74.8235ZM70.7526 73.1592H73.9695L72.3604 68.6344L70.7512 73.1592H70.7526Z" fill="#5C575E"></path><path d="M88.2968 75.5458L83.86 68.861V75.5458H83.2776V67.8573H83.86L88.2968 74.5203V67.8573H88.8792V75.5458H88.2968Z" fill="#5C575E"></path><path d="M101.931 74.8761C101.478 75.3294 100.83 75.6112 100.063 75.6112C99.2966 75.6112 98.6489 75.3308 98.1958 74.8761C97.4827 74.1629 97.429 73.5688 97.429 71.7008C97.429 69.8328 97.4827 69.2387 98.1958 68.5255C98.6489 68.0723 99.2966 67.7905 100.063 67.7905C100.83 67.7905 101.478 68.0708 101.931 68.5255C102.644 69.2387 102.698 69.8328 102.698 71.7008C102.698 73.5688 102.644 74.1629 101.931 74.8761ZM101.52 68.9046C101.121 68.5051 100.624 68.3105 100.062 68.3105C99.5 68.3105 99.0033 68.5051 98.6039 68.9046C98.0535 69.4551 98.0099 70.0812 98.0099 71.7008C98.0099 73.3204 98.0535 73.9465 98.6039 74.497C99.0033 74.8965 99.5 75.0911 100.062 75.0911C100.624 75.0911 101.121 74.8965 101.52 74.497C102.071 73.9465 102.114 73.3204 102.114 71.7008C102.114 70.0812 102.071 69.4551 101.52 68.9046Z" fill="#5C575E"></path><path d="M113.169 75.6111C112.035 75.6111 111.312 75.2974 110.61 74.5958L111.02 74.1847C111.711 74.8761 112.283 75.0926 113.201 75.0926C114.421 75.0926 115.176 74.5101 115.176 73.5049C115.176 73.0401 115.047 72.674 114.755 72.4256C114.485 72.1874 114.258 72.1119 113.643 72.0145L112.746 71.8736C112.164 71.7879 111.71 71.6151 111.375 71.3231C110.976 70.989 110.771 70.5126 110.771 69.8981C110.771 68.6126 111.678 67.7919 113.157 67.7919C114.107 67.7919 114.713 68.0505 115.371 68.6228L114.993 69.0004C114.54 68.569 114.032 68.2872 113.126 68.2872C112.003 68.2872 111.344 68.8915 111.344 69.8749C111.344 70.3179 111.463 70.6636 111.733 70.8903C112.003 71.1169 112.402 71.2679 112.834 71.3333L113.73 71.4742C114.443 71.5817 114.745 71.7008 115.101 72.0029C115.51 72.3588 115.759 72.8556 115.759 73.4817C115.759 74.7774 114.777 75.6097 113.168 75.6097L113.169 75.6111Z" fill="#5C575E"></path></svg>